<?xml version="1.0" encoding="UTF-8" standalone="no"?>
<!DOCTYPE svg PUBLIC "-//W3C//DTD SVG 1.1//EN"
 "http://www.w3.org/Graphics/SVG/1.1/DTD/svg11.dtd">
<!-- Generated by graphviz version 14.1.4 (0)
 -->
<!-- Title: pathways Pages: 1 -->
<svg width="955pt" height="637pt"
 viewBox="0.00 0.00 955.00 637.00" xmlns="http://www.w3.org/2000/svg" xmlns:xlink="http://www.w3.org/1999/xlink">
<g id="graph0" class="graph" transform="scale(1 1) rotate(0) translate(4 632.5)">
<title>pathways</title>
<polygon fill="white" stroke="none" points="-4,4 -4,-632.5 951.49,-632.5 951.49,4 -4,4"/>
<g id="clust1" class="cluster">
<title>cluster_publishing</title>
<polygon fill="none" stroke="gray" stroke-dasharray="5,2" points="34.49,-339 34.49,-620.5 174.49,-620.5 174.49,-339 34.49,-339"/>
<text xml:space="preserve" text-anchor="middle" x="104.49" y="-603.2" font-family="Times,serif" font-size="14.00">Publishing Layer</text>
</g>
<g id="clust2" class="cluster">
<title>cluster_pathway</title>
<polygon fill="none" stroke="black" points="182.49,-8 182.49,-462.5 519.49,-462.5 519.49,-8 182.49,-8"/>
<text xml:space="preserve" text-anchor="middle" x="350.99" y="-445.2" font-family="Times,serif" font-size="14.00">Pathway Definition</text>
</g>
<g id="clust3" class="cluster">
<title>cluster_enrollment</title>
<polygon fill="none" stroke="black" points="669.49,-32 669.49,-448.5 939.49,-448.5 939.49,-32 669.49,-32"/>
<text xml:space="preserve" text-anchor="middle" x="804.49" y="-431.2" font-family="Times,serif" font-size="14.00">Enrollment</text>
</g>
<g id="clust4" class="cluster">
<title>cluster_progress</title>
<polygon fill="none" stroke="black" points="527.49,-14 527.49,-289 661.49,-289 661.49,-14 527.49,-14"/>
<text xml:space="preserve" text-anchor="middle" x="594.49" y="-271.7" font-family="Times,serif" font-size="14.00">Learner Progress</text>
</g>
<!-- PE -->
<g id="node1" class="node">
<title>PE</title>
<polygon fill="none" stroke="black" points="47.74,-499.5 47.74,-587.5 161.24,-587.5 161.24,-499.5 47.74,-499.5"/>
<text xml:space="preserve" text-anchor="middle" x="104.49" y="-574" font-family="Helvetica,sans-Serif" font-size="10.00">PublishableEntity</text>
<polyline fill="none" stroke="black" points="47.74,-567.5 161.24,-567.5"/>
<text xml:space="preserve" text-anchor="start" x="55.74" y="-554" font-family="Helvetica,sans-Serif" font-size="10.00">uuid</text>
<text xml:space="preserve" text-anchor="start" x="55.74" y="-542" font-family="Helvetica,sans-Serif" font-size="10.00">learning_package (FK)</text>
<text xml:space="preserve" text-anchor="start" x="55.74" y="-530" font-family="Helvetica,sans-Serif" font-size="10.00">key</text>
<text xml:space="preserve" text-anchor="start" x="55.74" y="-518" font-family="Helvetica,sans-Serif" font-size="10.00">created</text>
<text xml:space="preserve" text-anchor="start" x="55.74" y="-506" font-family="Helvetica,sans-Serif" font-size="10.00">created_by (FK)</text>
</g>
<!-- PEV -->
<g id="node2" class="node">
<title>PEV</title>
<polygon fill="none" stroke="black" points="42.11,-347.5 42.11,-447.5 166.86,-447.5 166.86,-347.5 42.11,-347.5"/>
<text xml:space="preserve" text-anchor="middle" x="104.49" y="-434" font-family="Helvetica,sans-Serif" font-size="10.00">PublishableEntityVersion</text>
<polyline fill="none" stroke="black" points="42.11,-427.5 166.86,-427.5"/>
<text xml:space="preserve" text-anchor="start" x="50.11" y="-414" font-family="Helvetica,sans-Serif" font-size="10.00">uuid</text>
<text xml:space="preserve" text-anchor="start" x="50.11" y="-402" font-family="Helvetica,sans-Serif" font-size="10.00">entity (FK)</text>
<text xml:space="preserve" text-anchor="start" x="50.11" y="-390" font-family="Helvetica,sans-Serif" font-size="10.00">title</text>
<text xml:space="preserve" text-anchor="start" x="50.11" y="-378" font-family="Helvetica,sans-Serif" font-size="10.00">version_num</text>
<text xml:space="preserve" text-anchor="start" x="50.11" y="-366" font-family="Helvetica,sans-Serif" font-size="10.00">created</text>
<text xml:space="preserve" text-anchor="start" x="50.11" y="-354" font-family="Helvetica,sans-Serif" font-size="10.00">created_by (FK)</text>
</g>
<!-- PE&#45;&gt;PEV -->
<g id="edge1" class="edge">
<title>PE&#45;&gt;PEV</title>
<path fill="none" stroke="gray" stroke-dasharray="5,2" d="M104.49,-499.3C104.49,-486.67 104.49,-472.64 104.49,-459.15"/>
<polygon fill="gray" stroke="gray" points="107.99,-459.51 104.49,-449.51 100.99,-459.51 107.99,-459.51"/>
<text xml:space="preserve" text-anchor="middle" x="111.61" y="-472.45" font-family="Helvetica,sans-Serif" font-size="9.00">1:N</text>
</g>
<!-- Pathway -->
<g id="node3" class="node">
<title>Pathway</title>
<polygon fill="none" stroke="black" points="359.99,-365.5 359.99,-429.5 492.99,-429.5 492.99,-365.5 359.99,-365.5"/>
<text xml:space="preserve" text-anchor="middle" x="426.49" y="-416" font-family="Helvetica,sans-Serif" font-size="10.00">Pathway</text>
<polyline fill="none" stroke="black" points="359.99,-409.5 492.99,-409.5"/>
<text xml:space="preserve" text-anchor="start" x="367.99" y="-396" font-family="Helvetica,sans-Serif" font-size="10.00">publishable_entity (1:1 PK)</text>
<text xml:space="preserve" text-anchor="start" x="367.99" y="-384" font-family="Helvetica,sans-Serif" font-size="10.00">key (PathwayKeyField)</text>
<text xml:space="preserve" text-anchor="start" x="367.99" y="-372" font-family="Helvetica,sans-Serif" font-size="10.00">org (FK Organization)</text>
</g>
<!-- PE&#45;&gt;Pathway -->
<g id="edge10" class="edge">
<title>PE&#45;&gt;Pathway</title>
<path fill="none" stroke="black" stroke-dasharray="1,5" d="M161.68,-516.92C213.94,-493.55 291.62,-458.81 349.35,-433"/>
<polygon fill="black" stroke="black" points="350.44,-436.34 358.14,-429.06 347.59,-429.95 350.44,-436.34"/>
<text xml:space="preserve" text-anchor="middle" x="271.86" y="-472.45" font-family="Helvetica,sans-Serif" font-size="9.00">1:1</text>
</g>
<!-- PathwayStep -->
<g id="node5" class="node">
<title>PathwayStep</title>
<polygon fill="none" stroke="black" points="190.99,-212 190.99,-264 323.99,-264 323.99,-212 190.99,-212"/>
<text xml:space="preserve" text-anchor="middle" x="257.49" y="-250.5" font-family="Helvetica,sans-Serif" font-size="10.00">PathwayStep</text>
<polyline fill="none" stroke="black" points="190.99,-244 323.99,-244"/>
<text xml:space="preserve" text-anchor="start" x="198.99" y="-230.5" font-family="Helvetica,sans-Serif" font-size="10.00">publishable_entity (1:1 PK)</text>
<text xml:space="preserve" text-anchor="start" x="198.99" y="-218.5" font-family="Helvetica,sans-Serif" font-size="10.00">pathway (FK)</text>
</g>
<!-- PE&#45;&gt;PathwayStep -->
<g id="edge11" class="edge">
<title>PE&#45;&gt;PathwayStep</title>
<path fill="none" stroke="black" stroke-dasharray="1,5" d="M47.41,-500.31C36.57,-489.31 26.75,-476.55 20.74,-462.5 -0.85,-412.03 -12.05,-383.02 20.74,-339 56.41,-291.1 94.57,-323.98 149.49,-300.5 169.32,-292.02 190.14,-280.78 208.14,-270.23"/>
<polygon fill="black" stroke="black" points="209.73,-273.36 216.53,-265.24 206.15,-267.35 209.73,-273.36"/>
<text xml:space="preserve" text-anchor="middle" x="27.11" y="-394.2" font-family="Helvetica,sans-Serif" font-size="9.00">1:1</text>
</g>
<!-- PathwayVersion -->
<g id="node4" class="node">
<title>PathwayVersion</title>
<polygon fill="none" stroke="black" points="341.61,-176 341.61,-300 511.36,-300 511.36,-176 341.61,-176"/>
<text xml:space="preserve" text-anchor="middle" x="426.49" y="-286.5" font-family="Helvetica,sans-Serif" font-size="10.00">PathwayVersion</text>
<polyline fill="none" stroke="black" points="341.61,-280 511.36,-280"/>
<text xml:space="preserve" text-anchor="start" x="349.61" y="-266.5" font-family="Helvetica,sans-Serif" font-size="10.00">publishable_entity_version (1:1 PK)</text>
<text xml:space="preserve" text-anchor="start" x="349.61" y="-254.5" font-family="Helvetica,sans-Serif" font-size="10.00">pathway (FK)</text>
<text xml:space="preserve" text-anchor="start" x="349.61" y="-242.5" font-family="Helvetica,sans-Serif" font-size="10.00">description</text>
<text xml:space="preserve" text-anchor="start" x="349.61" y="-230.5" font-family="Helvetica,sans-Serif" font-size="10.00">sequential</text>
<text xml:space="preserve" text-anchor="start" x="349.61" y="-218.5" font-family="Helvetica,sans-Serif" font-size="10.00">invite_only</text>
<text xml:space="preserve" text-anchor="start" x="349.61" y="-206.5" font-family="Helvetica,sans-Serif" font-size="10.00">default_step_criteria (CEL)</text>
<text xml:space="preserve" text-anchor="start" x="349.61" y="-194.5" font-family="Helvetica,sans-Serif" font-size="10.00">completion_criteria (CEL)</text>
<text xml:space="preserve" text-anchor="start" x="349.61" y="-182.5" font-family="Helvetica,sans-Serif" font-size="10.00">metadata (JSON)</text>
</g>
<!-- PEV&#45;&gt;PathwayVersion -->
<g id="edge12" class="edge">
<title>PEV&#45;&gt;PathwayVersion</title>
<path fill="none" stroke="black" stroke-dasharray="1,5" d="M163.69,-347.22C168.55,-344.2 173.51,-341.42 178.49,-339 239.22,-309.51 265.85,-327.11 330.88,-301.26"/>
<polygon fill="black" stroke="black" points="331.95,-304.6 339.81,-297.5 329.24,-298.15 331.95,-304.6"/>
<text xml:space="preserve" text-anchor="middle" x="264.66" y="-320.45" font-family="Helvetica,sans-Serif" font-size="9.00">1:1</text>
</g>
<!-- PathwayStepVersion -->
<g id="node6" class="node">
<title>PathwayStepVersion</title>
<polygon fill="none" stroke="black" points="190.61,-16.5 190.61,-128.5 378.36,-128.5 378.36,-16.5 190.61,-16.5"/>
<text xml:space="preserve" text-anchor="middle" x="284.49" y="-115" font-family="Helvetica,sans-Serif" font-size="10.00">PathwayStepVersion</text>
<polyline fill="none" stroke="black" points="190.61,-108.5 378.36,-108.5"/>
<text xml:space="preserve" text-anchor="start" x="198.61" y="-95" font-family="Helvetica,sans-Serif" font-size="10.00">publishable_entity_version (1:1 PK)</text>
<text xml:space="preserve" text-anchor="start" x="198.61" y="-83" font-family="Helvetica,sans-Serif" font-size="10.00">step (FK)</text>
<text xml:space="preserve" text-anchor="start" x="198.61" y="-71" font-family="Helvetica,sans-Serif" font-size="10.00">step_type</text>
<text xml:space="preserve" text-anchor="start" x="198.61" y="-59" font-family="Helvetica,sans-Serif" font-size="10.00">context_key (LearningContextKeyField)</text>
<text xml:space="preserve" text-anchor="start" x="198.61" y="-47" font-family="Helvetica,sans-Serif" font-size="10.00">order</text>
<text xml:space="preserve" text-anchor="start" x="198.61" y="-35" font-family="Helvetica,sans-Serif" font-size="10.00">criteria (CEL)</text>
<text xml:space="preserve" text-anchor="start" x="198.61" y="-23" font-family="Helvetica,sans-Serif" font-size="10.00">group</text>
</g>
<!-- PEV&#45;&gt;PathwayStepVersion -->
<g id="edge13" class="edge">
<title>PEV&#45;&gt;PathwayStepVersion</title>
<path fill="none" stroke="black" stroke-dasharray="1,5" d="M111.04,-347.15C119.05,-300.09 135.97,-228.7 169.74,-175.5 178.59,-161.56 189.87,-148.4 201.89,-136.45"/>
<polygon fill="black" stroke="black" points="204,-139.28 208.79,-129.83 199.15,-134.23 204,-139.28"/>
<text xml:space="preserve" text-anchor="middle" x="176.11" y="-234.7" font-family="Helvetica,sans-Serif" font-size="9.00">1:1</text>
</g>
<!-- Pathway&#45;&gt;PathwayVersion -->
<g id="edge2" class="edge">
<title>Pathway&#45;&gt;PathwayVersion</title>
<path fill="none" stroke="black" d="M426.49,-365.01C426.49,-349.62 426.49,-330.41 426.49,-311.67"/>
<polygon fill="black" stroke="black" points="429.99,-311.92 426.49,-301.92 422.99,-311.92 429.99,-311.92"/>
<text xml:space="preserve" text-anchor="middle" x="433.61" y="-320.45" font-family="Helvetica,sans-Serif" font-size="9.00">1:N</text>
</g>
<!-- Pathway&#45;&gt;PathwayStep -->
<g id="edge3" class="edge">
<title>Pathway&#45;&gt;PathwayStep</title>
<path fill="none" stroke="black" d="M392.69,-365.01C363.85,-338.13 322.5,-299.59 293.14,-272.22"/>
<polygon fill="black" stroke="black" points="295.62,-269.76 285.92,-265.5 290.85,-274.88 295.62,-269.76"/>
<text xml:space="preserve" text-anchor="middle" x="359.23" y="-320.45" font-family="Helvetica,sans-Serif" font-size="9.00">1:N</text>
</g>
<!-- PathwayEnrollment -->
<g id="node8" class="node">
<title>PathwayEnrollment</title>
<polygon fill="none" stroke="black" points="677.11,-194 677.11,-282 777.86,-282 777.86,-194 677.11,-194"/>
<text xml:space="preserve" text-anchor="middle" x="727.49" y="-268.5" font-family="Helvetica,sans-Serif" font-size="10.00">PathwayEnrollment</text>
<polyline fill="none" stroke="black" points="677.11,-262 777.86,-262"/>
<text xml:space="preserve" text-anchor="start" x="685.11" y="-248.5" font-family="Helvetica,sans-Serif" font-size="10.00">user (FK)</text>
<text xml:space="preserve" text-anchor="start" x="685.11" y="-236.5" font-family="Helvetica,sans-Serif" font-size="10.00">pathway (FK)</text>
<text xml:space="preserve" text-anchor="start" x="685.11" y="-224.5" font-family="Helvetica,sans-Serif" font-size="10.00">is_active</text>
<text xml:space="preserve" text-anchor="start" x="685.11" y="-212.5" font-family="Helvetica,sans-Serif" font-size="10.00">created</text>
<text xml:space="preserve" text-anchor="start" x="685.11" y="-200.5" font-family="Helvetica,sans-Serif" font-size="10.00">modified</text>
</g>
<!-- Pathway&#45;&gt;PathwayEnrollment -->
<g id="edge14" class="edge">
<title>Pathway&#45;&gt;PathwayEnrollment</title>
<path fill="none" stroke="black" d="M493.18,-365.39C526.73,-350.3 568.24,-332.46 606.24,-318.5 632.07,-309.01 641.86,-314.61 665.49,-300.5 670.7,-297.39 675.79,-293.75 680.68,-289.83"/>
<polygon fill="black" stroke="black" points="682.77,-292.65 688.09,-283.48 678.21,-287.33 682.77,-292.65"/>
<text xml:space="preserve" text-anchor="middle" x="613.36" y="-320.45" font-family="Helvetica,sans-Serif" font-size="9.00">1:N</text>
</g>
<!-- PathwayEnrollmentAllowed -->
<g id="node9" class="node">
<title>PathwayEnrollmentAllowed</title>
<polygon fill="none" stroke="black" points="795.86,-206 795.86,-270 931.11,-270 931.11,-206 795.86,-206"/>
<text xml:space="preserve" text-anchor="middle" x="863.49" y="-256.5" font-family="Helvetica,sans-Serif" font-size="10.00">PathwayEnrollmentAllowed</text>
<polyline fill="none" stroke="black" points="795.86,-250 931.11,-250"/>
<text xml:space="preserve" text-anchor="start" x="803.86" y="-236.5" font-family="Helvetica,sans-Serif" font-size="10.00">email</text>
<text xml:space="preserve" text-anchor="start" x="803.86" y="-224.5" font-family="Helvetica,sans-Serif" font-size="10.00">pathway (FK)</text>
<text xml:space="preserve" text-anchor="start" x="803.86" y="-212.5" font-family="Helvetica,sans-Serif" font-size="10.00">created</text>
</g>
<!-- Pathway&#45;&gt;PathwayEnrollmentAllowed -->
<g id="edge15" class="edge">
<title>Pathway&#45;&gt;PathwayEnrollmentAllowed</title>
<path fill="none" stroke="black" d="M493.15,-380.3C589.81,-356.57 760.25,-313.74 786.49,-300.5 798.66,-294.36 810.72,-286.08 821.55,-277.59"/>
<polygon fill="black" stroke="black" points="823.6,-280.43 829.16,-271.41 819.19,-275 823.6,-280.43"/>
<text xml:space="preserve" text-anchor="middle" x="734.17" y="-320.45" font-family="Helvetica,sans-Serif" font-size="9.00">1:N</text>
</g>
<!-- PathwayStep&#45;&gt;PathwayStepVersion -->
<g id="edge4" class="edge">
<title>PathwayStep&#45;&gt;PathwayStepVersion</title>
<path fill="none" stroke="black" d="M261.65,-211.81C264.82,-192.62 269.34,-165.26 273.52,-139.94"/>
<polygon fill="black" stroke="black" points="276.92,-140.79 275.1,-130.36 270.02,-139.65 276.92,-140.79"/>
<text xml:space="preserve" text-anchor="middle" x="278.92" y="-148.95" font-family="Helvetica,sans-Serif" font-size="9.00">1:N</text>
</g>
<!-- PathwayStepAttempt -->
<g id="node12" class="node">
<title>PathwayStepAttempt</title>
<polygon fill="none" stroke="black" points="535.49,-22.5 535.49,-122.5 653.49,-122.5 653.49,-22.5 535.49,-22.5"/>
<text xml:space="preserve" text-anchor="middle" x="594.49" y="-109" font-family="Helvetica,sans-Serif" font-size="10.00">PathwayStepAttempt</text>
<polyline fill="none" stroke="black" points="535.49,-102.5 653.49,-102.5"/>
<text xml:space="preserve" text-anchor="start" x="543.49" y="-89" font-family="Helvetica,sans-Serif" font-size="10.00">user (FK)</text>
<text xml:space="preserve" text-anchor="start" x="543.49" y="-77" font-family="Helvetica,sans-Serif" font-size="10.00">step (FK PathwayStep)</text>
<text xml:space="preserve" text-anchor="start" x="543.49" y="-65" font-family="Helvetica,sans-Serif" font-size="10.00">grade</text>
<text xml:space="preserve" text-anchor="start" x="543.49" y="-53" font-family="Helvetica,sans-Serif" font-size="10.00">completion_level</text>
<text xml:space="preserve" text-anchor="start" x="543.49" y="-41" font-family="Helvetica,sans-Serif" font-size="10.00">created</text>
<text xml:space="preserve" text-anchor="start" x="543.49" y="-29" font-family="Helvetica,sans-Serif" font-size="10.00">updated</text>
</g>
<!-- PathwayStep&#45;&gt;PathwayStepAttempt -->
<g id="edge16" class="edge">
<title>PathwayStep&#45;&gt;PathwayStepAttempt</title>
<path fill="none" stroke="black" d="M282.51,-211.63C296.21,-199.07 314.11,-184.67 332.49,-175.5 410.67,-136.49 444.86,-167.09 523.49,-129 524.1,-128.7 524.72,-128.4 525.34,-128.09"/>
<polygon fill="black" stroke="black" points="526.85,-131.25 533.91,-123.34 523.46,-125.12 526.85,-131.25"/>
<text xml:space="preserve" text-anchor="middle" x="476.74" y="-148.95" font-family="Helvetica,sans-Serif" font-size="9.00">1:N</text>
</g>
<!-- User1 -->
<g id="node7" class="node">
<title>User1</title>
<polygon fill="none" stroke="black" stroke-dasharray="5,2" points="743.49,-379.5 743.49,-415.5 797.49,-415.5 797.49,-379.5 743.49,-379.5"/>
<text xml:space="preserve" text-anchor="middle" x="770.49" y="-394" font-family="Helvetica,sans-Serif" font-size="10.00">User</text>
</g>
<!-- User1&#45;&gt;PathwayEnrollment -->
<g id="edge5" class="edge">
<title>User1&#45;&gt;PathwayEnrollment</title>
<path fill="none" stroke="black" d="M765.72,-379.04C760.09,-358.43 750.46,-323.15 742.27,-293.16"/>
<polygon fill="black" stroke="black" points="745.74,-292.57 739.73,-283.84 738.99,-294.41 745.74,-292.57"/>
<text xml:space="preserve" text-anchor="middle" x="758.69" y="-320.45" font-family="Helvetica,sans-Serif" font-size="9.00">1:N</text>
</g>
<!-- User1&#45;&gt;PathwayEnrollmentAllowed -->
<g id="edge6" class="edge">
<title>User1&#45;&gt;PathwayEnrollmentAllowed</title>
<path fill="none" stroke="black" d="M780.8,-379.04C794.81,-355.31 820.3,-312.13 839.29,-279.97"/>
<polygon fill="black" stroke="black" points="842.12,-282.07 844.19,-271.68 836.09,-278.51 842.12,-282.07"/>
<text xml:space="preserve" text-anchor="middle" x="821.32" y="-320.45" font-family="Helvetica,sans-Serif" font-size="9.00">1:N</text>
</g>
<!-- PathwayEnrollmentAudit -->
<g id="node10" class="node">
<title>PathwayEnrollmentAudit</title>
<polygon fill="none" stroke="black" points="739.86,-40.5 739.86,-104.5 863.11,-104.5 863.11,-40.5 739.86,-40.5"/>
<text xml:space="preserve" text-anchor="middle" x="801.49" y="-91" font-family="Helvetica,sans-Serif" font-size="10.00">PathwayEnrollmentAudit</text>
<polyline fill="none" stroke="black" points="739.86,-84.5 863.11,-84.5"/>
<text xml:space="preserve" text-anchor="start" x="747.86" y="-71" font-family="Helvetica,sans-Serif" font-size="10.00">enrollment (FK)</text>
<text xml:space="preserve" text-anchor="start" x="747.86" y="-59" font-family="Helvetica,sans-Serif" font-size="10.00">action</text>
<text xml:space="preserve" text-anchor="start" x="747.86" y="-47" font-family="Helvetica,sans-Serif" font-size="10.00">timestamp</text>
</g>
<!-- PathwayEnrollment&#45;&gt;PathwayEnrollmentAudit -->
<g id="edge7" class="edge">
<title>PathwayEnrollment&#45;&gt;PathwayEnrollmentAudit</title>
<path fill="none" stroke="black" d="M747.12,-193.61C758.13,-169.3 771.78,-139.14 782.65,-115.12"/>
<polygon fill="black" stroke="black" points="785.72,-116.83 786.65,-106.28 779.34,-113.95 785.72,-116.83"/>
<text xml:space="preserve" text-anchor="middle" x="773.83" y="-148.95" font-family="Helvetica,sans-Serif" font-size="9.00">1:N</text>
</g>
<!-- PathwayEnrollmentAllowed&#45;&gt;PathwayEnrollmentAudit -->
<g id="edge8" class="edge">
<title>PathwayEnrollmentAllowed&#45;&gt;PathwayEnrollmentAudit</title>
<path fill="none" stroke="black" d="M851.68,-205.86C841.97,-180.26 828.12,-143.74 817.43,-115.54"/>
<polygon fill="black" stroke="black" points="820.71,-114.32 813.89,-106.22 814.17,-116.81 820.71,-114.32"/>
<text xml:space="preserve" text-anchor="middle" x="839.61" y="-148.95" font-family="Helvetica,sans-Serif" font-size="9.00">1:N</text>
</g>
<!-- User2 -->
<g id="node11" class="node">
<title>User2</title>
<polygon fill="none" stroke="black" stroke-dasharray="5,2" points="567.49,-220 567.49,-256 621.49,-256 621.49,-220 567.49,-220"/>
<text xml:space="preserve" text-anchor="middle" x="594.49" y="-234.5" font-family="Helvetica,sans-Serif" font-size="10.00">User</text>
</g>
<!-- User2&#45;&gt;PathwayStepAttempt -->
<g id="edge9" class="edge">
<title>User2&#45;&gt;PathwayStepAttempt</title>
<path fill="none" stroke="black" d="M594.49,-219.5C594.49,-199.2 594.49,-164.6 594.49,-134.18"/>
<polygon fill="black" stroke="black" points="597.99,-134.28 594.49,-124.28 590.99,-134.28 597.99,-134.28"/>
<text xml:space="preserve" text-anchor="middle" x="601.61" y="-148.95" font-family="Helvetica,sans-Serif" font-size="9.00">1:N</text>
</g>
</g>
</svg>
