<?xml version="1.0" encoding="UTF-8" standalone="no"?>
<!DOCTYPE svg PUBLIC "-//W3C//DTD SVG 1.1//EN"
 "http://www.w3.org/Graphics/SVG/1.1/DTD/svg11.dtd">
<!-- Generated by graphviz version 16.0.0 (0)
 -->
<!-- Title: pathway_item_fulfillment Pages: 1 -->
<svg width="503pt" height="218pt"
 viewBox="0.00 0.00 503.00 218.00" xmlns="http://www.w3.org/2000/svg" xmlns:xlink="http://www.w3.org/1999/xlink">
<g id="graph0" class="graph" transform="scale(1 1) rotate(0) translate(4 214.25)">
<title>pathway_item_fulfillment</title>
<polygon fill="white" stroke="none" points="-4,4 -4,-214.25 498.5,-214.25 498.5,4 -4,4"/>
<!-- item -->
<g id="node1" class="node">
<title>item</title>
<path fill="none" stroke="black" d="M70,-129.25C70,-129.25 12,-129.25 12,-129.25 6,-129.25 0,-123.25 0,-117.25 0,-117.25 0,-105.25 0,-105.25 0,-99.25 6,-93.25 12,-93.25 12,-93.25 70,-93.25 70,-93.25 76,-93.25 82,-99.25 82,-105.25 82,-105.25 82,-117.25 82,-117.25 82,-123.25 76,-129.25 70,-129.25"/>
<text xml:space="preserve" text-anchor="middle" x="41" y="-107.55" font-family="Helvetica,sans-Serif" font-size="11.00">Pathway Item</text>
</g>
<!-- runA -->
<g id="node2" class="node">
<title>runA</title>
<path fill="none" stroke="black" d="M296.38,-210.25C296.38,-210.25 207.62,-210.25 207.62,-210.25 201.62,-210.25 195.62,-204.25 195.62,-198.25 195.62,-198.25 195.62,-186.25 195.62,-186.25 195.62,-180.25 201.62,-174.25 207.62,-174.25 207.62,-174.25 296.38,-174.25 296.38,-174.25 302.38,-174.25 308.38,-180.25 308.38,-186.25 308.38,-186.25 308.38,-198.25 308.38,-198.25 308.38,-204.25 302.38,-210.25 296.38,-210.25"/>
<text xml:space="preserve" text-anchor="middle" x="252" y="-195.3" font-family="Helvetica,sans-Serif" font-size="11.00">Course Run A1</text>
<text xml:space="preserve" text-anchor="middle" x="252" y="-181.8" font-family="Helvetica,sans-Serif" font-size="11.00">(default: enroll here)</text>
</g>
<!-- item&#45;&gt;runA -->
<g id="edge1" class="edge">
<title>item&#45;&gt;runA</title>
<path fill="none" stroke="black" d="M82.47,-128.97C88.33,-131.45 94.31,-133.95 100,-136.25 128.83,-147.92 161.11,-160.02 188.41,-169.98"/>
<polygon fill="black" stroke="black" points="186.98,-173.18 197.57,-173.3 189.37,-166.6 186.98,-173.18"/>
<text xml:space="preserve" text-anchor="middle" x="129.25" y="-161.16" font-family="Helvetica,sans-Serif" font-size="10.00">pass any one</text>
</g>
<!-- runB -->
<g id="node3" class="node">
<title>runB</title>
<path fill="none" stroke="black" d="M300.88,-156.25C300.88,-156.25 203.12,-156.25 203.12,-156.25 197.12,-156.25 191.12,-150.25 191.12,-144.25 191.12,-144.25 191.12,-132.25 191.12,-132.25 191.12,-126.25 197.12,-120.25 203.12,-120.25 203.12,-120.25 300.88,-120.25 300.88,-120.25 306.88,-120.25 312.88,-126.25 312.88,-132.25 312.88,-132.25 312.88,-144.25 312.88,-144.25 312.88,-150.25 306.88,-156.25 300.88,-156.25"/>
<text xml:space="preserve" text-anchor="middle" x="252" y="-141.3" font-family="Helvetica,sans-Serif" font-size="11.00">Course Run A2</text>
<text xml:space="preserve" text-anchor="middle" x="252" y="-127.8" font-family="Helvetica,sans-Serif" font-size="11.00">(older run, still counts)</text>
</g>
<!-- item&#45;&gt;runB -->
<g id="edge2" class="edge">
<title>item&#45;&gt;runB</title>
<path fill="none" stroke="black" d="M82.3,-116.46C109.78,-120.01 146.93,-124.81 179.38,-129"/>
<polygon fill="black" stroke="black" points="178.77,-132.45 189.14,-130.26 179.67,-125.51 178.77,-132.45"/>
</g>
<!-- runC -->
<g id="node4" class="node">
<title>runC</title>
<path fill="none" stroke="black" d="M307.62,-102.25C307.62,-102.25 196.38,-102.25 196.38,-102.25 190.38,-102.25 184.38,-96.25 184.38,-90.25 184.38,-90.25 184.38,-78.25 184.38,-78.25 184.38,-72.25 190.38,-66.25 196.38,-66.25 196.38,-66.25 307.62,-66.25 307.62,-66.25 313.62,-66.25 319.62,-72.25 319.62,-78.25 319.62,-78.25 319.62,-90.25 319.62,-90.25 319.62,-96.25 313.62,-102.25 307.62,-102.25"/>
<text xml:space="preserve" text-anchor="middle" x="252" y="-87.3" font-family="Helvetica,sans-Serif" font-size="11.00">Course Run B1</text>
<text xml:space="preserve" text-anchor="middle" x="252" y="-73.8" font-family="Helvetica,sans-Serif" font-size="11.00">(different catalog course)</text>
</g>
<!-- item&#45;&gt;runC -->
<g id="edge3" class="edge">
<title>item&#45;&gt;runC</title>
<path fill="none" stroke="black" d="M82.3,-106.04C107.97,-102.73 142.08,-98.32 172.91,-94.34"/>
<polygon fill="black" stroke="black" points="173.13,-97.84 182.6,-93.09 172.23,-90.9 173.13,-97.84"/>
</g>
<!-- future -->
<g id="node5" class="node">
<title>future</title>
<path fill="none" stroke="black" stroke-dasharray="5,2" d="M315.5,-48.5C315.5,-48.5 188.5,-48.5 188.5,-48.5 182.5,-48.5 176.5,-42.5 176.5,-36.5 176.5,-36.5 176.5,-12 176.5,-12 176.5,-6 182.5,0 188.5,0 188.5,0 315.5,0 315.5,0 321.5,0 327.5,-6 327.5,-12 327.5,-12 327.5,-36.5 327.5,-36.5 327.5,-42.5 321.5,-48.5 315.5,-48.5"/>
<text xml:space="preserve" text-anchor="middle" x="252" y="-34.05" font-family="Helvetica,sans-Serif" font-size="11.00">future fulfillment types:</text>
<text xml:space="preserve" text-anchor="middle" x="252" y="-20.55" font-family="Helvetica,sans-Serif" font-size="11.00">section completion,</text>
<text xml:space="preserve" text-anchor="middle" x="252" y="-7.05" font-family="Helvetica,sans-Serif" font-size="11.00">competency, admin override</text>
</g>
<!-- item&#45;&gt;future -->
<g id="edge4" class="edge">
<title>item&#45;&gt;future</title>
<path fill="none" stroke="black" stroke-dasharray="5,2" d="M82.3,-94.48C110.34,-82.8 148.46,-66.94 181.36,-53.24"/>
<polygon fill="black" stroke="black" points="182.56,-56.53 190.45,-49.46 179.87,-50.07 182.56,-56.53"/>
</g>
<!-- grading -->
<g id="node6" class="node">
<title>grading</title>
<text xml:space="preserve" text-anchor="middle" x="429.5" y="-146.75" font-family="Helvetica,sans-Serif" font-size="10.00" fill="#4d4d4d">passed/failed read directly</text>
<text xml:space="preserve" text-anchor="middle" x="429.5" y="-134.75" font-family="Helvetica,sans-Serif" font-size="10.00" fill="#4d4d4d">from each course&#39;s</text>
<text xml:space="preserve" text-anchor="middle" x="429.5" y="-122.75" font-family="Helvetica,sans-Serif" font-size="10.00" fill="#4d4d4d">grading policy</text>
</g>
<!-- runB&#45;&gt;grading -->
</g>
</svg>
